<svg width="165" height="141" viewBox="0 0 165 141" fill="none" xmlns="http://www.w3.org/2000/svg">
<path d="M2.81268 32.8524C-0.937559 36.6069 -0.937559 42.2388 2.81268 45.9933C6.56291 49.7479 12.1883 49.7479 15.9385 45.9933C33.7521 28.6285 57.6599 18.7728 82.5052 18.7728V0C52.5033 0 24.3765 11.733 2.81268 32.8524Z" fill="white"/>
<path d="M162.198 32.8524C141.103 11.733 112.507 0 82.5054 0V18.7728C107.351 18.7728 131.258 28.6285 148.603 46.4627C150.478 48.3399 152.822 49.2786 155.166 49.2786C157.51 49.2786 159.854 48.3399 161.729 46.4627C165.948 42.7081 165.948 36.6069 162.198 32.8524Z" fill="white"/>
<path d="M22.9704 62.4189C19.2202 66.1734 19.2202 71.8053 22.9704 75.5598C26.7206 79.3144 32.346 79.3144 36.0962 75.5598C48.2845 63.3575 65.1606 56.3177 82.5054 56.3177V37.5449C60.004 37.5449 38.9089 46.462 22.9704 62.4189Z" fill="white"/>
<path d="M142.04 62.4189C126.102 46.462 105.007 37.5449 82.5054 37.5449V56.3177C99.8502 56.3177 116.726 63.3575 128.915 75.5598C130.79 77.4371 133.134 78.3758 135.477 78.3758C137.821 78.3758 140.165 77.4371 142.04 75.5598C145.791 71.8053 145.791 66.1734 142.04 62.4189Z" fill="white"/>
<path d="M43.6589 91.516C39.9086 95.2706 39.9086 100.902 43.6589 104.657C47.4091 108.412 53.0345 108.412 56.7847 104.657C64.2852 97.6172 74.1295 93.8626 83.5051 93.8626V75.0898C68.973 75.0898 54.9096 80.7217 43.6589 91.516Z" fill="white"/>
<path d="M122.352 91.516C111.101 80.7217 97.0375 75.0898 82.5054 75.0898V93.8626C91.881 93.8626 101.725 97.6172 109.226 104.657C111.101 106.534 113.445 107.473 115.789 107.473C118.133 107.473 120.477 106.534 122.352 104.657C126.102 101.372 126.102 95.2706 122.352 91.516Z" fill="white"/>
<path d="M72.6609 116.861C67.0356 122.492 67.0356 131.41 72.6609 136.572C75.4736 139.388 79.2238 140.796 82.5053 140.796V112.637C78.755 112.637 75.4736 114.045 72.6609 116.861Z" fill="white"/>
<path d="M92.3497 116.861C89.5371 114.045 86.2556 112.637 82.5054 112.637V140.796C86.2556 140.796 89.5371 139.388 92.3497 136.572C97.9751 130.94 97.9751 122.492 92.3497 116.861Z" fill="white"/>
</svg>
